name C:/MyDriveSym/Projects/mobilecap/Data\Session20210823_0002\mocap\ForceDataProcessed\walkingTS1_forces.mot
datacolumns 19
datarows 22
range 0.70950000 0.72000000
endheader 
time	R_ground_force_vx	R_ground_force_vy	R_ground_force_vz	R_ground_force_px	R_ground_force_py	R_ground_force_pz	R_ground_torque_x	R_ground_torque_y	R_ground_torque_z	L_ground_force_vx	L_ground_force_vy	L_ground_force_vz	L_ground_force_px	L_ground_force_py	L_ground_force_pz	L_ground_torque_x	L_ground_torque_y	L_ground_torque_z	
          0.70950000	         17.54015600	         64.75002300	         -3.97353200	          0.40590100	          0.00600000	         -0.13096000	          0.00000000	         -0.01136300	          0.00000000	        -93.29173500	        628.84352200	         43.99745500	          0.88824300	          0.00600000	         -0.34733500	          0.00000000	          0.34896800	          0.00000000	
          0.71000000	         17.25160800	         63.47945400	         -3.89387500	          0.40635500	          0.00600000	         -0.13096600	          0.00000000	         -0.00895000	          0.00000000	        -93.56550000	        630.65753600	         44.22511600	          0.88844000	          0.00600000	         -0.34734900	          0.00000000	          0.34800100	          0.00000000	
          0.71050000	         16.96532200	         62.22105200	         -3.81500900	          0.40681900	          0.00600000	         -0.13097100	          0.00000000	         -0.00655100	          0.00000000	        -93.83602500	        632.46090000	         44.45187500	          0.88863700	          0.00600000	         -0.34736200	          0.00000000	          0.34704500	          0.00000000	
          0.71100000	         16.68130300	         60.97480000	         -3.73693100	          0.40729500	          0.00600000	         -0.13097600	          0.00000000	         -0.00416700	          0.00000000	        -94.10329400	        634.25354000	         44.67771600	          0.88883300	          0.00600000	         -0.34737500	          0.00000000	          0.34610000	          0.00000000	
          0.71150000	         16.39955700	         59.74068000	         -3.65964000	          0.40778300	          0.00600000	         -0.13098000	          0.00000000	         -0.00179700	          0.00000000	        -94.36729000	        636.03538600	         44.90261900	          0.88902900	          0.00600000	         -0.34738800	          0.00000000	          0.34516400	          0.00000000	
          0.71200000	         16.12008600	         58.51867000	         -3.58313500	          0.40828400	          0.00600000	         -0.13098300	          0.00000000	          0.00055800	          0.00000000	        -94.62799600	        637.80636500	         45.12656600	          0.88922400	          0.00600000	         -0.34740100	          0.00000000	          0.34424000	          0.00000000	
          0.71250000	         15.84289500	         57.30874900	         -3.50741300	          0.40879700	          0.00600000	         -0.13098600	          0.00000000	          0.00289900	          0.00000000	        -94.88539800	        639.56640800	         45.34953700	          0.88941900	          0.00600000	         -0.34741400	          0.00000000	          0.34332500	          0.00000000	
          0.71300000	         15.56798700	         56.11089300	         -3.43247300	          0.40932500	          0.00600000	         -0.13098800	          0.00000000	          0.00522400	          0.00000000	        -95.13948000	        641.31544200	         45.57151500	          0.88961300	          0.00600000	         -0.34742700	          0.00000000	          0.34242100	          0.00000000	
          0.71350000	         15.29536400	         54.92507600	         -3.35831300	          0.40986600	          0.00600000	         -0.13099000	          0.00000000	          0.00753600	          0.00000000	        -95.39022500	        643.05339900	         45.79248100	          0.88980600	          0.00600000	         -0.34744000	          0.00000000	          0.34152800	          0.00000000	
          0.71400000	         15.02502900	         53.75127200	         -3.28493100	          0.41042300	          0.00600000	         -0.13099100	          0.00000000	          0.00983200	          0.00000000	        -95.63762100	        644.78020800	         46.01241800	          0.88999900	          0.00600000	         -0.34745300	          0.00000000	          0.34064500	          0.00000000	
          0.71450000	         14.75698300	         52.58945200	         -3.21232400	          0.41099500	          0.00600000	         -0.13099100	          0.00000000	          0.01211400	          0.00000000	        -95.88165200	        646.49580100	         46.23130700	          0.89019100	          0.00600000	         -0.34746600	          0.00000000	          0.33977200	          0.00000000	
          0.71500000	         14.49123000	         51.43958900	         -3.14049000	          0.41158300	          0.00600000	         -0.13099000	          0.00000000	          0.01438100	          0.00000000	        -96.12230400	        648.20010900	         46.44913100	          0.89038300	          0.00600000	         -0.34747900	          0.00000000	          0.33891100	          0.00000000	
          0.71550000	         14.22776800	         50.30165000	         -3.06942800	          0.41218900	          0.00600000	         -0.13098900	          0.00000000	          0.01663300	          0.00000000	        -96.35956300	        649.89306300	         46.66587200	          0.89057500	          0.00600000	         -0.34749200	          0.00000000	          0.33806000	          0.00000000	
          0.71600000	         13.96660000	         49.17560400	         -2.99913400	          0.41281300	          0.00600000	         -0.13098700	          0.00000000	          0.01887000	          0.00000000	        -96.59341700	        651.57459700	         46.88151200	          0.89076500	          0.00600000	         -0.34750500	          0.00000000	          0.33721900	          0.00000000	
          0.71650000	         13.70772500	         48.06141700	         -2.92960600	          0.41345500	          0.00600000	         -0.13098400	          0.00000000	          0.02109300	          0.00000000	        -96.82385100	        653.24464300	         47.09603500	          0.89095600	          0.00600000	         -0.34751700	          0.00000000	          0.33639000	          0.00000000	
          0.71700000	         13.45114400	         46.95905500	         -2.86084200	          0.41411700	          0.00600000	         -0.13098000	          0.00000000	          0.02330100	          0.00000000	        -97.05085400	        654.90313600	         47.30942300	          0.89114500	          0.00600000	         -0.34753000	          0.00000000	          0.33557100	          0.00000000	
          0.71750000	         13.19685700	         45.86848200	         -2.79284000	          0.41480000	          0.00600000	         -0.13097500	          0.00000000	          0.02549500	          0.00000000	        -97.27441300	        656.55000900	         47.52165900	          0.89133500	          0.00600000	         -0.34754300	          0.00000000	          0.33476300	          0.00000000	
          0.71800000	         12.94486100	         44.78966100	         -2.72559500	          0.41550500	          0.00600000	         -0.13096900	          0.00000000	          0.02767400	          0.00000000	        -97.49451600	        658.18519700	         47.73272700	          0.89152300	          0.00600000	         -0.34755600	          0.00000000	          0.33396600	          0.00000000	
          0.71850000	         12.69515800	         43.72255400	         -2.65910600	          0.41623300	          0.00600000	         -0.13096100	          0.00000000	          0.02983800	          0.00000000	        -97.71115100	        659.80863700	         47.94260900	          0.89171100	          0.00600000	         -0.34756900	          0.00000000	          0.33318000	          0.00000000	
          0.71900000	         12.44774400	         42.66712100	         -2.59337000	          0.41698500	          0.00600000	         -0.13095300	          0.00000000	          0.03198800	          0.00000000	        -97.92430800	        661.42026400	         48.15129000	          0.89189900	          0.00600000	         -0.34758100	          0.00000000	          0.33240400	          0.00000000	
          0.71950000	         12.20261900	         41.62332100	         -2.52838400	          0.41776200	          0.00600000	         -0.13094400	          0.00000000	          0.03412400	          0.00000000	        -98.13397500	        663.02001500	         48.35875200	          0.89208600	          0.00600000	         -0.34759400	          0.00000000	          0.33164000	          0.00000000	
          0.72000000	         11.95978000	         40.59111400	         -2.46414500	          0.41856700	          0.00600000	         -0.13093300	          0.00000000	          0.03624500	          0.00000000	        -98.34014100	        664.60782700	         48.56498000	          0.89227300	          0.00600000	         -0.34760700	          0.00000000	          0.33088700	          0.00000000	
